<?xml version="1.0" encoding="utf-8"?>
<svg version="1.0" width="1015.000000pt" height="906.000000pt" viewBox="0 0 1015.000000 906.000000" preserveAspectRatio="xMidYMid meet" xmlns="http://www.w3.org/2000/svg">
  <g transform="translate(0.000000,906.000000) scale(0.100000,-0.100000)" fill="#000000" stroke="none">
    <path d="M5955 8350 c-192 -4 -377 -10 -410 -14 -33 -4 -103 -11 -155 -17 -52 -5 -120 -14 -150 -19 -30 -5 -129 -21 -220 -35 -164 -26 -439 -82 -535 -110 -27 -8 -99 -29 -160 -46 -463 -130 -963 -362 -1263 -586 -177 -132 -395 -325 -488 -431 -254 -290 -423 -577 -550 -931 -50 -141 -98 -348 -133 -571 -43 -280 -55 -442 -54 -755 1 -421 23 -620 118 -1058 22 -103 24 -126 15 -185 -22 -144 -73 -297 -158 -467 -74 -149 -177 -303 -424 -633 -334 -444 -395 -535 -434 -645 -12 -35 -12 -43 1 -63 35 -54 129 -37 414 76 243 95 378 140 596 199 287 77 389 94 573 93 260 -2 364 -50 647 -301 80 -70 335 -237 517 -337 386 -212 941 -408 1378 -485 498 -87 815 -115 930 -81 106 32 183 76 255 147 120 118 175 246 175 407 0 195 -92 371 -253 480 -104 70 -190 94 -432 119 -224 23 -272 29 -320 39 -27 6 -77 15 -110 20 -176 28 -464 105 -670 180 -285 103 -622 297 -815 468 -232 206 -472 504 -561 698 -105 229 -140 318 -172 434 -53 194 -69 277 -99 520 -16 133 -17 644 0 755 6 44 16 121 23 170 27 225 64 353 154 541 67 140 118 223 198 319 272 325 591 528 1121 715 391 138 861 211 1471 231 577 19 919 -2 1295 -77 231 -45 338 -37 505 42 117 55 227 192 279 347 22 64 22 235 0 308 -43 145 -111 242 -220 315 -97 64 -178 96 -299 117 -49 9 -144 26 -210 37 -66 12 -158 26 -205 30 -47 5 -143 16 -215 24 -171 19 -517 25 -950 16z" style="fill: rgb(121, 40, 130);"/>
  </g>
  <ellipse style="stroke: rgb(242, 145, 1); fill: rgb(242, 145, 1);" cx="614.944" cy="438.613" rx="252.691" ry="209.9"/>
  <path style="stroke: rgb(242, 145, 1); fill: rgb(242, 145, 1);" d="M 614.575 228.713 C 614.575 228.713 332.741 191.824 362.99 449.311"/>
  <path style="stroke: rgb(242, 145, 1); fill: rgb(242, 145, 1);" d="M 866.897 441.933 C 866.897 441.933 911.164 191.824 596.13 227.238"/>
  <path style="fill: rgb(242, 145, 1); stroke: rgb(242, 145, 1);" d="M 666.958 644.824 C 666.958 644.824 796.07 593.179 866.16 676.549 C 936.25 759.919 777.932 371.348 803.017 264.369"/>
  <path style="fill: rgb(242, 145, 1); stroke: rgb(242, 145, 1);" d="M 860.257 490.627 C 860.257 490.627 844.764 512.023 858.782 562.93 C 872.8 613.837 782.79 491.365 782.79 491.365"/>
  <ellipse style="fill: rgb(242, 145, 0); stroke: rgb(242, 145, 0);" cx="620.141" cy="252.819" rx="144.542" ry="30.621"/>
</svg>